<mxfile host="app.diagrams.net" agent="Mozilla/5.0 (Macintosh; Intel Mac OS X 10_15_7) AppleWebKit/605.1.15 (KHTML, like Gecko) Version/18.5 Safari/605.1.15" version="28.1.1">
  <diagram name="Page-1" id="3vfyKCS-lD6p9P20eH_8">
    <mxGraphModel dx="1928" dy="1473" grid="1" gridSize="10" guides="1" tooltips="1" connect="1" arrows="1" fold="1" page="1" pageScale="1" pageWidth="1920" pageHeight="1200" math="0" shadow="0">
      <root>
        <mxCell id="0" />
        <mxCell id="1" parent="0" />
        <mxCell id="4JSb5kasIs6f26XYG4gC-15" value="" style="group;fontSize=17;fontFamily=Space Mono;fontSource=https%3A%2F%2Ffonts.googleapis.com%2Fcss%3Ffamily%3DSpace%2BMono;" parent="1" vertex="1" connectable="0">
          <mxGeometry x="1140" y="142" width="672" height="1020" as="geometry" />
        </mxCell>
        <mxCell id="4JSb5kasIs6f26XYG4gC-2" style="edgeStyle=orthogonalEdgeStyle;rounded=0;orthogonalLoop=1;jettySize=auto;html=1;entryX=0.5;entryY=0;entryDx=0;entryDy=0;strokeWidth=3;endArrow=open;endFill=0;endSize=13;" parent="4JSb5kasIs6f26XYG4gC-15" source="0DG_mYwxClTH-fYbRJ0F-1" target="4JSb5kasIs6f26XYG4gC-1" edge="1">
          <mxGeometry relative="1" as="geometry" />
        </mxCell>
        <mxCell id="0DG_mYwxClTH-fYbRJ0F-1" value="&lt;font face=&quot;Space Mono&quot;&gt;začetek&lt;/font&gt;" style="rounded=1;whiteSpace=wrap;html=1;strokeWidth=3;fontSize=21;" parent="4JSb5kasIs6f26XYG4gC-15" vertex="1">
          <mxGeometry x="20" width="240" height="120" as="geometry" />
        </mxCell>
        <mxCell id="4JSb5kasIs6f26XYG4gC-4" style="edgeStyle=orthogonalEdgeStyle;rounded=0;orthogonalLoop=1;jettySize=auto;html=1;entryX=0.5;entryY=0;entryDx=0;entryDy=0;strokeWidth=3;endArrow=open;endFill=0;endSize=13;strokeColor=default;align=center;verticalAlign=middle;fontFamily=Helvetica;fontSize=11;fontColor=default;labelBackgroundColor=default;" parent="4JSb5kasIs6f26XYG4gC-15" source="4JSb5kasIs6f26XYG4gC-1" target="4JSb5kasIs6f26XYG4gC-3" edge="1">
          <mxGeometry relative="1" as="geometry" />
        </mxCell>
        <mxCell id="4JSb5kasIs6f26XYG4gC-13" value="DA" style="edgeLabel;html=1;align=center;verticalAlign=middle;resizable=0;points=[];fontFamily=Helvetica;fontSize=21;rounded=0;strokeColor=default;strokeWidth=3;fontColor=default;labelBackgroundColor=default;" parent="4JSb5kasIs6f26XYG4gC-4" vertex="1" connectable="0">
          <mxGeometry x="-0.2883" y="1" relative="1" as="geometry">
            <mxPoint x="-1" y="2" as="offset" />
          </mxGeometry>
        </mxCell>
        <mxCell id="4JSb5kasIs6f26XYG4gC-6" style="edgeStyle=orthogonalEdgeStyle;rounded=0;orthogonalLoop=1;jettySize=auto;html=1;entryX=0;entryY=0.5;entryDx=0;entryDy=0;strokeWidth=3;endArrow=open;endFill=0;endSize=13;strokeColor=default;align=center;verticalAlign=middle;fontFamily=Helvetica;fontSize=11;fontColor=default;labelBackgroundColor=default;" parent="4JSb5kasIs6f26XYG4gC-15" source="4JSb5kasIs6f26XYG4gC-1" target="4JSb5kasIs6f26XYG4gC-5" edge="1">
          <mxGeometry relative="1" as="geometry" />
        </mxCell>
        <mxCell id="4JSb5kasIs6f26XYG4gC-14" value="&amp;nbsp;NE&amp;nbsp;" style="edgeLabel;html=1;align=center;verticalAlign=middle;resizable=0;points=[];fontFamily=Helvetica;fontSize=21;rounded=0;strokeColor=default;strokeWidth=3;fontColor=default;labelBackgroundColor=default;fillColor=none;gradientColor=none;" parent="4JSb5kasIs6f26XYG4gC-6" vertex="1" connectable="0">
          <mxGeometry x="-0.2278" relative="1" as="geometry">
            <mxPoint as="offset" />
          </mxGeometry>
        </mxCell>
        <mxCell id="4JSb5kasIs6f26XYG4gC-1" value="Je oseba, ki si izposoja, zaposlena&amp;nbsp;&lt;div&gt;na šoli?&lt;/div&gt;" style="rhombus;whiteSpace=wrap;html=1;strokeWidth=3;fontFamily=Space Mono;fontSource=https%3A%2F%2Ffonts.googleapis.com%2Fcss%3Ffamily%3DSpace%2BMono;fontSize=19;fillColor=#e3c800;fontColor=#000000;strokeColor=#B09500;" parent="4JSb5kasIs6f26XYG4gC-15" vertex="1">
          <mxGeometry y="220" width="280" height="280" as="geometry" />
        </mxCell>
        <mxCell id="4JSb5kasIs6f26XYG4gC-8" style="edgeStyle=orthogonalEdgeStyle;rounded=0;orthogonalLoop=1;jettySize=auto;html=1;entryX=0.5;entryY=0;entryDx=0;entryDy=0;strokeColor=default;strokeWidth=3;align=center;verticalAlign=middle;fontFamily=Helvetica;fontSize=11;fontColor=default;labelBackgroundColor=default;endArrow=open;endFill=0;endSize=13;exitX=0.5;exitY=1;exitDx=0;exitDy=0;" parent="4JSb5kasIs6f26XYG4gC-15" source="4JSb5kasIs6f26XYG4gC-3" target="4JSb5kasIs6f26XYG4gC-7" edge="1">
          <mxGeometry relative="1" as="geometry" />
        </mxCell>
        <mxCell id="4JSb5kasIs6f26XYG4gC-3" value="Čas izposoje&amp;nbsp;&lt;div&gt;je 28 dni.&lt;/div&gt;" style="rounded=0;whiteSpace=wrap;html=1;strokeWidth=3;fontFamily=Space Mono;fontSource=https%3A%2F%2Ffonts.googleapis.com%2Fcss%3Ffamily%3DSpace%2BMono;fontSize=19;fillColor=#b1ddf0;strokeColor=#10739e;" parent="4JSb5kasIs6f26XYG4gC-15" vertex="1">
          <mxGeometry x="20" y="600" width="240" height="120" as="geometry" />
        </mxCell>
        <mxCell id="4JSb5kasIs6f26XYG4gC-5" value="Čas izposoje&amp;nbsp;&lt;div&gt;je 7 dni.&lt;/div&gt;" style="rounded=0;whiteSpace=wrap;html=1;strokeWidth=3;fontFamily=Space Mono;fontSource=https%3A%2F%2Ffonts.googleapis.com%2Fcss%3Ffamily%3DSpace%2BMono;fontSize=19;fillColor=#b1ddf0;strokeColor=#10739e;" parent="4JSb5kasIs6f26XYG4gC-15" vertex="1">
          <mxGeometry x="432" y="300" width="240" height="120" as="geometry" />
        </mxCell>
        <mxCell id="4JSb5kasIs6f26XYG4gC-7" value="&lt;font face=&quot;Space Mono&quot;&gt;konec&lt;/font&gt;" style="rounded=1;whiteSpace=wrap;html=1;strokeWidth=3;fontSize=21;" parent="4JSb5kasIs6f26XYG4gC-15" vertex="1">
          <mxGeometry x="20" y="900" width="240" height="120" as="geometry" />
        </mxCell>
        <mxCell id="4JSb5kasIs6f26XYG4gC-10" value="" style="endArrow=open;html=1;rounded=0;exitX=0.5;exitY=1;exitDx=0;exitDy=0;strokeColor=default;strokeWidth=3;align=center;verticalAlign=middle;fontFamily=Helvetica;fontSize=11;fontColor=default;labelBackgroundColor=default;endFill=0;endSize=13;entryX=1;entryY=0.5;entryDx=0;entryDy=0;flowAnimation=0;jumpStyle=none;" parent="4JSb5kasIs6f26XYG4gC-15" source="4JSb5kasIs6f26XYG4gC-5" target="4JSb5kasIs6f26XYG4gC-11" edge="1">
          <mxGeometry width="50" height="50" relative="1" as="geometry">
            <mxPoint x="252" y="740" as="sourcePoint" />
            <mxPoint x="172" y="780" as="targetPoint" />
            <Array as="points">
              <mxPoint x="552" y="800" />
            </Array>
          </mxGeometry>
        </mxCell>
        <mxCell id="4JSb5kasIs6f26XYG4gC-11" value="" style="ellipse;whiteSpace=wrap;html=1;aspect=fixed;strokeWidth=2;fillColor=#6d8764;fontColor=#ffffff;strokeColor=#3A5431;" parent="4JSb5kasIs6f26XYG4gC-15" vertex="1">
          <mxGeometry x="120" y="780" width="40" height="40" as="geometry" />
        </mxCell>
        <mxCell id="4JSb5kasIs6f26XYG4gC-16" value="SISTEM KNJIŽNIČNE IZPOSOJE" style="text;html=1;align=left;verticalAlign=middle;whiteSpace=wrap;rounded=0;fontFamily=Rubik;fontSource=https%3A%2F%2Ffonts.googleapis.com%2Fcss%3Ffamily%3DRubik;fontSize=40;fontStyle=1" parent="1" vertex="1">
          <mxGeometry x="90" y="70" width="860" height="30" as="geometry" />
        </mxCell>
        <mxCell id="4JSb5kasIs6f26XYG4gC-17" value="&lt;h1 style=&quot;margin-top: 0px; line-height: 100%;&quot;&gt;&lt;p style=&quot;margin: 0px; font-style: normal; font-variant-caps: normal; font-weight: normal; font-width: normal; font-size-adjust: none; font-kerning: auto; font-variant-alternates: normal; font-variant-ligatures: normal; font-variant-numeric: normal; font-variant-east-asian: normal; font-variant-position: normal; font-feature-settings: normal; font-optical-sizing: auto; font-variation-settings: normal;&quot;&gt;&lt;font style=&quot;line-height: 100%;&quot; face=&quot;Rubik&quot;&gt;Knjižnica &lt;b&gt;Osnovne šole Vide Pregarc&amp;nbsp;&lt;/b&gt;ima preprost sistem izposoje knjig: za zaposlene je čas izposoje 28 dni, za učence pa 7 dni.&amp;nbsp;&lt;/font&gt;&lt;/p&gt;&lt;p style=&quot;margin: 0px; font-style: normal; font-variant-caps: normal; font-weight: normal; font-width: normal; font-size-adjust: none; font-kerning: auto; font-variant-alternates: normal; font-variant-ligatures: normal; font-variant-numeric: normal; font-variant-east-asian: normal; font-variant-position: normal; font-feature-settings: normal; font-optical-sizing: auto; font-variation-settings: normal;&quot;&gt;&lt;font style=&quot;line-height: 100%;&quot; face=&quot;Rubik&quot;&gt;Ta preprost sistem je prikazan desno z &lt;span style=&quot;color: rgb(204, 0, 102);&quot;&gt;drevesnim diagramom sklepanja&lt;/span&gt;:&amp;nbsp;&lt;/font&gt;&lt;/p&gt;&lt;/h1&gt;" style="text;html=1;whiteSpace=wrap;overflow=hidden;rounded=0;flipV=1;fontSize=18;" parent="1" vertex="1">
          <mxGeometry x="90" y="139" width="930" height="220" as="geometry" />
        </mxCell>
        <mxCell id="5IMB9TRbHSOfjiEPJzhD-1" value="&lt;h1 style=&quot;margin-top: 0px; line-height: 100%;&quot;&gt;&lt;p style=&quot;margin: 0px 0px 11px; font-style: normal; font-variant-caps: normal; font-width: normal; font-size-adjust: none; font-kerning: auto; font-variant-alternates: normal; font-variant-ligatures: normal; font-variant-numeric: normal; font-variant-east-asian: normal; font-variant-position: normal; font-feature-settings: normal; font-optical-sizing: auto; font-variation-settings: normal;&quot;&gt;&lt;font style=&quot;font-weight: normal; line-height: 100%;&quot;&gt;Knjižnica &lt;/font&gt;&lt;font style=&quot;line-height: 100%;&quot;&gt;SMGŠ&lt;/font&gt;&lt;font style=&quot;font-weight: normal; line-height: 100%;&quot;&gt;&amp;nbsp;uporablja podoben, a bolj zapleten sistem izposoje:&amp;nbsp;&lt;/font&gt;&lt;/p&gt;&lt;p style=&quot;margin: 0px 0px 11px; font-style: normal; font-variant-caps: normal; font-width: normal; line-height: normal; font-size-adjust: none; font-kerning: auto; font-variant-alternates: normal; font-variant-ligatures: normal; font-variant-numeric: normal; font-variant-east-asian: normal; font-variant-position: normal; font-feature-settings: normal; font-optical-sizing: auto; font-variation-settings: normal;&quot;&gt;&lt;/p&gt;&lt;ul&gt;&lt;li&gt;&lt;span style=&quot;font-weight: normal;&quot;&gt;&lt;span style=&quot;text-indent: -18px;&quot;&gt;Za vse publikacije, označene kot &quot;rezervirane&quot;, je čas izposoje 2 dni.&amp;nbsp;&lt;/span&gt;&lt;/span&gt;&lt;/li&gt;&lt;li&gt;&lt;span style=&quot;font-weight: normal; text-indent: -18px;&quot;&gt;Za knjige (ne pa tudi revije), ki &lt;/span&gt;&lt;span style=&quot;font-weight: normal; text-indent: -18px;&quot;&gt;niso &lt;/span&gt;&lt;span style=&quot;font-weight: normal; text-indent: -18px;&quot;&gt;na seznamu rezerviranih publikacij, je čas izposoje 28 dni za zaposlene na gimnaziji in 14 dni za dijake.&amp;nbsp;&lt;/span&gt;&lt;/li&gt;&lt;li&gt;&lt;span style=&quot;font-weight: normal; text-indent: -18px;&quot;&gt;Za revije, ki &lt;/span&gt;&lt;span style=&quot;font-weight: normal; text-indent: -18px;&quot;&gt;niso &lt;/span&gt;&lt;span style=&quot;font-weight: normal; text-indent: -18px;&quot;&gt;na seznamu rezerviranih publikacij, je čas izposoje za vse 7 dni.&amp;nbsp;&lt;/span&gt;&lt;/li&gt;&lt;li&gt;&lt;span style=&quot;text-indent: -18px; font-weight: normal;&quot;&gt;Osebe, ki imajo izposojeno gradivo, za katero je rok izposoje potekel, si ne morejo izposoditi novega gradiva.&amp;nbsp;&lt;/span&gt;&lt;/li&gt;&lt;/ul&gt;&lt;p&gt;&lt;/p&gt;&lt;div&gt;&lt;br&gt;&lt;/div&gt;&lt;/h1&gt;" style="text;html=1;whiteSpace=wrap;overflow=hidden;rounded=0;fontFamily=Rubik;fontSize=18;fontColor=default;fontSource=https%3A%2F%2Ffonts.googleapis.com%2Fcss%3Ffamily%3DRubik;spacing=2;flipV=1;verticalAlign=middle;" vertex="1" parent="1">
          <mxGeometry x="132" y="1290" width="1618" height="340" as="geometry" />
        </mxCell>
        <mxCell id="5IMB9TRbHSOfjiEPJzhD-2" value="&lt;h1 style=&quot;margin-top: 0px; line-height: 100%;&quot;&gt;&lt;p style=&quot;margin: 12px 0px; text-align: justify; font-style: normal; font-variant-caps: normal; font-width: normal; font-size-adjust: none; font-kerning: auto; font-variant-alternates: normal; font-variant-ligatures: normal; font-variant-numeric: normal; font-variant-east-asian: normal; font-variant-position: normal; font-feature-settings: normal; font-optical-sizing: auto; font-variation-settings: normal;&quot;&gt;&lt;font style=&quot;line-height: 100%;&quot; data-font-src=&quot;https://fonts.googleapis.com/css?family=Rubik&quot; face=&quot;Rubik&quot;&gt;1. vprašanje: SISTEM KNJIŽNIČNE IZPOSOJE &lt;span style=&quot;font-style: normal; font-variant-caps: normal; font-width: normal; font-size-adjust: none; font-kerning: auto; font-variant-alternates: normal; font-variant-ligatures: normal; font-variant-numeric: normal; font-variant-east-asian: normal; font-variant-position: normal; font-feature-settings: normal; font-optical-sizing: auto; font-variation-settings: normal; color: rgb(127, 127, 127);&quot;&gt;&lt;i&gt;&amp;nbsp;&lt;/i&gt;&lt;span style=&quot;font-weight: normal;&quot;&gt;&lt;i&gt;&lt;/i&gt;&lt;/span&gt;&lt;/span&gt;&lt;/font&gt;&lt;/p&gt;&lt;p style=&quot;margin: 0px 0px 11px; font-style: normal; font-variant-caps: normal; font-width: normal; font-size-adjust: none; font-kerning: auto; font-variant-alternates: normal; font-variant-ligatures: normal; font-variant-numeric: normal; font-variant-east-asian: normal; font-variant-position: normal; font-feature-settings: normal; font-optical-sizing: auto; font-variation-settings: normal;&quot;&gt;&lt;font style=&quot;font-weight: normal; line-height: 100%;&quot; data-font-src=&quot;https://fonts.googleapis.com/css?family=Rubik&quot; face=&quot;Rubik&quot;&gt;Si dijak/-inja SMGŠ in nimaš izposojenega gradiva, ki mu je rok izposoje potekel. Želiš si izposoditi knjigo, ki ni na seznamu rezerviranih publikacij. Za koliko časa si jo lahko izposodiš?&amp;nbsp;&lt;/font&gt;&lt;/p&gt;&lt;p style=&quot;margin: 0px 0px 14px; font-style: normal; font-variant-caps: normal; font-width: normal; font-size-adjust: none; font-kerning: auto; font-variant-alternates: normal; font-variant-ligatures: normal; font-variant-numeric: normal; font-variant-east-asian: normal; font-variant-position: normal; font-feature-settings: normal; font-optical-sizing: auto; font-variation-settings: normal;&quot;&gt;&lt;font style=&quot;font-weight: normal; line-height: 100%;&quot; data-font-src=&quot;https://fonts.googleapis.com/css?family=Rubik&quot; face=&quot;Rubik&quot;&gt;Odgovor: Za............................................ dni.&amp;nbsp;&lt;/font&gt;&lt;/p&gt;&lt;/h1&gt;" style="text;html=1;whiteSpace=wrap;overflow=hidden;rounded=0;fontFamily=Helvetica;fontSize=18;fontColor=default;flipV=1;" vertex="1" parent="1">
          <mxGeometry x="132" y="1650" width="1580" height="200" as="geometry" />
        </mxCell>
        <mxCell id="5IMB9TRbHSOfjiEPJzhD-3" value="&lt;h1 style=&quot;margin-top: 0px; line-height: 100%;&quot;&gt;&lt;p style=&quot;margin: 12px 0px; text-align: justify; font-style: normal; font-variant-caps: normal; font-weight: normal; font-width: normal; font-size-adjust: none; font-kerning: auto; font-variant-alternates: normal; font-variant-ligatures: normal; font-variant-numeric: normal; font-variant-east-asian: normal; font-variant-position: normal; font-feature-settings: normal; font-optical-sizing: auto; font-variation-settings: normal;&quot;&gt;&lt;b&gt;2. vprašanje: SISTEM KNJIŽNIČNE IZPOSOJE&lt;/b&gt;&lt;/p&gt;&lt;p style=&quot;margin: 0px 0px 11px; font-style: normal; font-variant-caps: normal; font-weight: normal; font-width: normal; font-size-adjust: none; font-kerning: auto; font-variant-alternates: normal; font-variant-ligatures: normal; font-variant-numeric: normal; font-variant-east-asian: normal; font-variant-position: normal; font-feature-settings: normal; font-optical-sizing: auto; font-variation-settings: normal;&quot;&gt;Naredi drevesni diagram sklepanja za sistem izposoje v &lt;b&gt;SMGŠ&lt;/b&gt;, na podlagi katerega bi lahko v knjižnici izdelali sistem za avtomatsko kontrolo nad izposojo knjig in revij.&amp;nbsp;&lt;font&gt;Tvoj kontrolni sistem mora biti čim bolj učinkovit, kar pomeni, da mora imeti najmanjše možno število kontrolnih korakov. Upoštevaj, da mora imeti vsak kontrolni korak samo &lt;b&gt;dve &lt;/b&gt;rešitvi in da morata biti rešitvi ustrezno označeni (na primer: &quot;DA&quot; in &quot;NE&quot;).&amp;nbsp;&lt;/font&gt;&lt;/p&gt;&lt;/h1&gt;" style="text;html=1;whiteSpace=wrap;overflow=hidden;rounded=0;fontFamily=Rubik;fontSize=18;fontColor=default;fontSource=https%3A%2F%2Ffonts.googleapis.com%2Fcss%3Ffamily%3DRubik;flipV=1;" vertex="1" parent="1">
          <mxGeometry x="132" y="1930" width="1608" height="300" as="geometry" />
        </mxCell>
      </root>
    </mxGraphModel>
  </diagram>
</mxfile>
